<svg xmlns="http://www.w3.org/2000/svg" viewBox="0 0 1000 1000">
  <style>
      .op-svg-logo__dash, .op-svg-logo__bubble { fill: #3B5BDB }
      .op-svg-logo__ring { fill: #5C7CFA }
  </style>
  <path class="op-svg-logo__ring" d="M265.44 359.52C313.22 279.91 400.39 226.63 500 226.63s186.77 53.28 234.56 132.89h118.29C797 219.37 660.07 120.32 500.01 120.32s-297 99.05-352.85 239.2h118.28Zm469.12 280.96C686.78 720.09 599.61 773.37 500 773.37s-186.77-53.28-234.56-132.89H147.16c55.85 140.15 192.78 239.2 352.84 239.2s296.99-99.05 352.84-239.2H734.55Z" />
  <rect class="op-svg-logo__dash" width="227.26" height="106.79" x="2" y="446.61" rx="53.39" ry="53.39"/>
  <rect class="op-svg-logo__dash" width="227.26" height="106.79" x="308.31" y="446.94" rx="53.39" ry="53.39"/>
  <path class="op-svg-logo__bubble" d="M808.76 310.76c-104.51 0-189.24 84.73-189.24 189.24s84.73 189.24 189.24 189.24S998 604.51 998 500s-84.73-189.24-189.24-189.24Zm0 283.86c-52.26 0-94.62-42.36-94.62-94.62s42.36-94.62 94.62-94.62 94.62 42.36 94.62 94.62-42.36 94.62-94.62 94.62Z"/>
</svg>
